<svg width="87" height="26" viewBox="0 0 87 26" fill="none" xmlns="http://www.w3.org/2000/svg">
<path d="M26.2013 0H24.4867V24.872H26.2013V0Z" fill="#ED145B"/>
<path d="M14.7215 11.9072H6.37616V13.6165H14.7215V11.9072Z" fill="#ED145B"/>
<path d="M0 0V24.872H1.7146V1.70931H19.4232V0H0Z" fill="#ED145B"/>
<path d="M77.5857 0.101425H63.9761V24.9734H65.6907V15.7025H65.7041V13.9932H65.6907V1.81074H77.4652C81.6043 1.81074 84.4308 3.86771 84.4308 7.80783V7.88026C84.4308 11.5741 81.5374 13.9932 77.2643 13.9932H71.8793V15.7025H77.1705C81.966 15.7025 86.1454 13.0082 86.1454 7.77886V7.70643C86.1186 2.89717 82.6358 0.101425 77.5857 0.101425Z" fill="#ED145B"/>
<path d="M54.0233 13.9932L46.0531 0H44.4055L30.2064 25.0458H31.9746L45.1958 2.028L52.0944 13.9932H54.0233Z" fill="#ED145B"/>
<path d="M56.6489 18.5851H54.7468L58.4573 25.0458H60.3326L56.6489 18.5851Z" fill="#ED145B"/>
</svg>
